# Tiled2Unity generated file. Do not modify by hand.
# Wavefront file for 'Mapa02_mesh_0004.obj'

# Vertices (Count = 284)
v 0 -1 0
v -1 -1 0
v -1 0 0
v 0 0 0
v 0 -2 0
v -1 -2 0
v -1 -1 0
v 0 -1 0
v 0 -3 0
v -1 -3 0
v -1 -2 0
v 0 -2 0
v 0 -4 0
v -1 -4 0
v -1 -3 0
v 0 -3 0
v -4 -4 0
v -5 -4 0
v -5 -3 0
v -4 -3 0
v -5 -4 0
v -6 -4 0
v -6 -3 0
v -5 -3 0
v 0 -5 0
v -1 -5 0
v -1 -4 0
v 0 -4 0
v -4 -5 0
v -5 -5 0
v -5 -4 0
v -4 -4 0
v -5 -5 0
v -6 -5 0
v -6 -4 0
v -5 -4 0
v 0 -6 0
v -1 -6 0
v -1 -5 0
v 0 -5 0
v -4 -6 0
v -5 -6 0
v -5 -5 0
v -4 -5 0
v -5 -6 0
v -6 -6 0
v -6 -5 0
v -5 -5 0
v 0 -7 0
v -1 -7 0
v -1 -6 0
v 0 -6 0
v -4 -7 0
v -5 -7 0
v -5 -6 0
v -4 -6 0
v -5 -7 0
v -6 -7 0
v -6 -6 0
v -5 -6 0
v 0 -8 0
v -1 -8 0
v -1 -7 0
v 0 -7 0
v -4 -8 0
v -5 -8 0
v -5 -7 0
v -4 -7 0
v -5 -8 0
v -6 -8 0
v -6 -7 0
v -5 -7 0
v 0 -9 0
v -1 -9 0
v -1 -8 0
v 0 -8 0
v -4 -9 0
v -5 -9 0
v -5 -8 0
v -4 -8 0
v -5 -9 0
v -6 -9 0
v -6 -8 0
v -5 -8 0
v 0 -10 0
v -1 -10 0
v -1 -9 0
v 0 -9 0
v -1 -10 0
v -2 -10 0
v -2 -9 0
v -1 -9 0
v -2 -10 0
v -3 -10 0
v -3 -9 0
v -2 -9 0
v -3 -10 0
v -4 -10 0
v -4 -9 0
v -3 -9 0
v -4 -10 0
v -5 -10 0
v -5 -9 0
v -4 -9 0
v -5 -10 0
v -6 -10 0
v -6 -9 0
v -5 -9 0
v -10 -10 0
v -11 -10 0
v -11 -9 0
v -10 -9 0
v -11 -10 0
v -12 -10 0
v -12 -9 0
v -11 -9 0
v -12 -10 0
v -13 -10 0
v -13 -9 0
v -12 -9 0
v 0 -11 0
v -1 -11 0
v -1 -10 0
v 0 -10 0
v -1 -11 0
v -2 -11 0
v -2 -10 0
v -1 -10 0
v -2 -11 0
v -3 -11 0
v -3 -10 0
v -2 -10 0
v -3 -11 0
v -4 -11 0
v -4 -10 0
v -3 -10 0
v -4 -11 0
v -5 -11 0
v -5 -10 0
v -4 -10 0
v -5 -11 0
v -6 -11 0
v -6 -10 0
v -5 -10 0
v -10 -11 0
v -11 -11 0
v -11 -10 0
v -10 -10 0
v -11 -11 0
v -12 -11 0
v -12 -10 0
v -11 -10 0
v -12 -11 0
v -13 -11 0
v -13 -10 0
v -12 -10 0
v 0 -12 0
v -1 -12 0
v -1 -11 0
v 0 -11 0
v -1 -12 0
v -2 -12 0
v -2 -11 0
v -1 -11 0
v -2 -12 0
v -3 -12 0
v -3 -11 0
v -2 -11 0
v -3 -12 0
v -4 -12 0
v -4 -11 0
v -3 -11 0
v -4 -12 0
v -5 -12 0
v -5 -11 0
v -4 -11 0
v -5 -12 0
v -6 -12 0
v -6 -11 0
v -5 -11 0
v -10 -12 0
v -11 -12 0
v -11 -11 0
v -10 -11 0
v -11 -12 0
v -12 -12 0
v -12 -11 0
v -11 -11 0
v -12 -12 0
v -13 -12 0
v -13 -11 0
v -12 -11 0
v 0 -13 0
v -1 -13 0
v -1 -12 0
v 0 -12 0
v -1 -13 0
v -2 -13 0
v -2 -12 0
v -1 -12 0
v -2 -13 0
v -3 -13 0
v -3 -12 0
v -2 -12 0
v -3 -13 0
v -4 -13 0
v -4 -12 0
v -3 -12 0
v 0 -14 0
v -1 -14 0
v -1 -13 0
v 0 -13 0
v -1 -14 0
v -2 -14 0
v -2 -13 0
v -1 -13 0
v -2 -14 0
v -3 -14 0
v -3 -13 0
v -2 -13 0
v -3 -14 0
v -4 -14 0
v -4 -13 0
v -3 -13 0
v 0 -15 0
v -1 -15 0
v -1 -14 0
v 0 -14 0
v -1 -15 0
v -2 -15 0
v -2 -14 0
v -1 -14 0
v -2 -15 0
v -3 -15 0
v -3 -14 0
v -2 -14 0
v -3 -15 0
v -4 -15 0
v -4 -14 0
v -3 -14 0
v -22 -15 0
v -23 -15 0
v -23 -14 0
v -22 -14 0
v -23 -15 0
v -24 -15 0
v -24 -14 0
v -23 -14 0
v -24 -15 0
v -25 -15 0
v -25 -14 0
v -24 -14 0
v 0 -16 0
v -1 -16 0
v -1 -15 0
v 0 -15 0
v -1 -16 0
v -2 -16 0
v -2 -15 0
v -1 -15 0
v -2 -16 0
v -3 -16 0
v -3 -15 0
v -2 -15 0
v -3 -16 0
v -4 -16 0
v -4 -15 0
v -3 -15 0
v -4 -16 0
v -5 -16 0
v -5 -15 0
v -4 -15 0
v -5 -16 0
v -6 -16 0
v -6 -15 0
v -5 -15 0
v -6 -16 0
v -7 -16 0
v -7 -15 0
v -6 -15 0
v -7 -16 0
v -8 -16 0
v -8 -15 0
v -7 -15 0

# Texture cooridinates (Count = 40)
vt 0.6 0.25
vt 0.65 0.25
vt 0.65 0.3
vt 0.6 0.3
vt 0.5 0.3
vt 0.55 0.3
vt 0.55 0.35
vt 0.5 0.35
vt 0.65 0.35
vt 0.6 0.35
vt 0.5 0.25
vt 0.55 0.25
vt 0.75 0.3
vt 0.8 0.3
vt 0.8 0.35
vt 0.75 0.35
vt 0.85 0.3
vt 0.85 0.35
vt 0.9 0.3
vt 0.9 0.35
vt 0.75 0.25
vt 0.8 0.25
vt 0.85 0.25
vt 0.9 0.25
vt 0 0.95
vt 0.05 0.95
vt 0.05 1
vt 0 1
vt 0.5 0.2
vt 0.55 0.2
vt 0.6 0.2
vt 0.65 0.2
vt 0.75 0.2
vt 0.8 0.2
vt 0.85 0.2
vt 0.9 0.2
vt 0.5 0.15
vt 0.55 0.15
vt 0.6 0.15
vt 0.65 0.15

# Normal
vn 0 0 -1

# Mesh description
g Mapa02_mesh_0004

# Faces
f 1/1/1 2/2/1 3/3/1 4/4/1
f 5/1/1 6/2/1 7/3/1 8/4/1
f 9/1/1 10/2/1 11/3/1 12/4/1
f 13/1/1 14/2/1 15/3/1 16/4/1
f 17/5/1 18/6/1 19/7/1 20/8/1
f 21/4/1 22/3/1 23/9/1 24/10/1
f 25/1/1 26/2/1 27/3/1 28/4/1
f 29/11/1 30/12/1 31/6/1 32/5/1
f 33/1/1 34/2/1 35/3/1 36/4/1
f 37/1/1 38/2/1 39/3/1 40/4/1
f 41/11/1 42/12/1 43/6/1 44/5/1
f 45/1/1 46/2/1 47/3/1 48/4/1
f 49/1/1 50/2/1 51/3/1 52/4/1
f 53/11/1 54/12/1 55/6/1 56/5/1
f 57/1/1 58/2/1 59/3/1 60/4/1
f 61/1/1 62/2/1 63/3/1 64/4/1
f 65/11/1 66/12/1 67/6/1 68/5/1
f 69/1/1 70/2/1 71/3/1 72/4/1
f 73/1/1 74/2/1 75/3/1 76/4/1
f 77/11/1 78/12/1 79/6/1 80/5/1
f 81/1/1 82/2/1 83/3/1 84/4/1
f 85/1/1 86/2/1 87/3/1 88/4/1
f 89/5/1 90/6/1 91/7/1 92/8/1
f 93/6/1 94/4/1 95/10/1 96/7/1
f 97/4/1 98/3/1 99/9/1 100/10/1
f 101/11/1 102/12/1 103/6/1 104/5/1
f 105/1/1 106/2/1 107/3/1 108/4/1
f 109/13/1 110/14/1 111/15/1 112/16/1
f 113/14/1 114/17/1 115/18/1 116/15/1
f 117/17/1 118/19/1 119/20/1 120/18/1
f 121/1/1 122/2/1 123/3/1 124/4/1
f 125/11/1 126/12/1 127/6/1 128/5/1
f 129/12/1 130/1/1 131/4/1 132/6/1
f 133/1/1 134/2/1 135/3/1 136/4/1
f 137/11/1 138/12/1 139/6/1 140/5/1
f 141/1/1 142/2/1 143/3/1 144/4/1
f 145/21/1 146/22/1 147/14/1 148/13/1
f 149/22/1 150/23/1 151/17/1 152/14/1
f 153/23/1 154/24/1 155/19/1 156/17/1
f 157/1/1 158/2/1 159/3/1 160/4/1
f 161/11/1 162/12/1 163/6/1 164/5/1
f 165/25/1 166/26/1 167/27/1 168/28/1
f 169/1/1 170/2/1 171/3/1 172/4/1
f 173/29/1 174/30/1 175/12/1 176/11/1
f 177/31/1 178/32/1 179/2/1 180/1/1
f 181/33/1 182/34/1 183/22/1 184/21/1
f 185/34/1 186/35/1 187/23/1 188/22/1
f 189/35/1 190/36/1 191/24/1 192/23/1
f 193/1/1 194/2/1 195/3/1 196/4/1
f 197/11/1 198/12/1 199/6/1 200/5/1
f 201/25/1 202/26/1 203/27/1 204/28/1
f 205/1/1 206/2/1 207/3/1 208/4/1
f 209/1/1 210/2/1 211/3/1 212/4/1
f 213/11/1 214/12/1 215/6/1 216/5/1
f 217/12/1 218/1/1 219/4/1 220/6/1
f 221/1/1 222/2/1 223/3/1 224/4/1
f 225/1/1 226/2/1 227/3/1 228/4/1
f 229/11/1 230/12/1 231/6/1 232/5/1
f 233/25/1 234/26/1 235/27/1 236/28/1
f 237/1/1 238/2/1 239/3/1 240/4/1
f 241/37/1 242/38/1 243/30/1 244/29/1
f 245/38/1 246/39/1 247/31/1 248/30/1
f 249/39/1 250/40/1 251/32/1 252/31/1
f 253/1/1 254/2/1 255/3/1 256/4/1
f 257/11/1 258/12/1 259/6/1 260/5/1
f 261/12/1 262/1/1 263/4/1 264/6/1
f 265/1/1 266/2/1 267/3/1 268/4/1
f 269/37/1 270/38/1 271/30/1 272/29/1
f 273/38/1 274/39/1 275/31/1 276/30/1
f 277/38/1 278/39/1 279/31/1 280/30/1
f 281/39/1 282/40/1 283/32/1 284/31/1

