# Tiled2Unity generated file. Do not modify by hand.
# Wavefront file for 'Mapa04_mesh_0002.obj'

# Vertices (Count = 28)
v -23 -2 0
v -24 -2 0
v -24 -1 0
v -23 -1 0
v -24 -2 0
v -25 -2 0
v -25 -1 0
v -24 -1 0
v -25 -2 0
v -26 -2 0
v -26 -1 0
v -25 -1 0
v -23 -14 0
v -24 -14 0
v -24 -13 0
v -23 -13 0
v 0 -15 0
v -1 -15 0
v -1 -14 0
v 0 -14 0
v -1 -15 0
v -2 -15 0
v -2 -14 0
v -1 -14 0
v -2 -15 0
v -3 -15 0
v -3 -14 0
v -2 -14 0

# Texture cooridinates (Count = 12)
vt 0.5 0.15
vt 0.55 0.15
vt 0.55 0.2
vt 0.5 0.2
vt 0.6 0.15
vt 0.6 0.2
vt 0.65 0.15
vt 0.65 0.2
vt 0.9 0.15
vt 0.95 0.15
vt 0.95 0.2
vt 0.9 0.2

# Normal
vn 0 0 -1

# Mesh description
g Mapa04_mesh_0002

# Faces
f 1/1/1 2/2/1 3/3/1 4/4/1
f 5/2/1 6/5/1 7/6/1 8/3/1
f 9/5/1 10/7/1 11/8/1 12/6/1
f 13/9/1 14/10/1 15/11/1 16/12/1
f 17/1/1 18/2/1 19/3/1 20/4/1
f 21/2/1 22/5/1 23/6/1 24/3/1
f 25/5/1 26/7/1 27/8/1 28/6/1

